:FULLY-SPECIFIED
:FORCE-ALL-JOINTS-BE-3DOF
:DEGREES
747
root 4.13947 16.7689 14.4521 -163.387 -8.55539 189.065
lfemur -31.9544 1.07972 -15.0478
ltibia 44.8658 0 0
lfoot -29.1965 6.40711 0
ltoes 5.59384 0 0
rfemur -27.6236 -32.4786 10.7232
rtibia 106.517 0 0
rfoot 15.2777 3.77474 0
rtoes 17.0192 0 0
lowerback 2.49408 6.74477 -2.08736
upperback -1.36725 8.89393 -1.39001
thorax -2.88426 4.46392 -0.716513
lowerneck -6.5247 -8.51997 -1.26229
upperneck -2.06298 -11.4631 5.33222
head 0.849256 -5.74691 1.52992
lclavicle -2.61306e-14 8.41669e-15 0
lhumerus -54.8566 -5.62757 74.817
lradius 48.5467 0 0
lwrist 16.052 0 0
lhand -28.0162 -4.17543 0
lfingers 7.12502 0 0
lthumb -1.40154 25.7951 0
rclavicle -2.61306e-14 8.41669e-15 0
rhumerus 25.4355 38.6883 -67.4475
rradius 95.9723 0 0
rwrist -1.19841 0 0
rhand -21.7736 -21.1583 0
rfingers 7.12502 0 0
rthumb 4.62649 -771.052 0
748
root 4.09442 16.6335 14.6536 -163.367 -6.27454 188.937
lfemur -33.5611 3.06273 -16.149
ltibia 47.3628 0 0
lfoot -30.0678 7.00575 0
ltoes 5.86649 0 0
rfemur -27.6102 -32.611 12.4623
rtibia 104.666 0 0
rfoot 14.9559 2.78465 0
rtoes 17.4561 0 0
lowerback 2.79647 6.54479 -2.42833
upperback -1.20205 8.60763 -1.57433
thorax -2.90132 4.32651 -0.729919
lowerneck -6.38658 -8.60837 -1.43185
upperneck -2.14381 -11.5817 5.71526
head 0.842376 -5.81005 1.67996
lclavicle -2.24627e-14 9.93923e-15 0
lhumerus -53.7885 -5.69189 77.0837
lradius 49.0802 0 0
lwrist 15.4428 0 0
lhand -28.5573 -4.42665 0
lfingers 7.12502 0 0
lthumb -1.92413 25.5391 0
rclavicle -2.24627e-14 9.93923e-15 0
rhumerus 22.0705 41.2385 -70.7178
rradius 95.6519 0 0
rwrist -0.05452 0 0
rhand -20.2882 -20.003 0
rfingers 7.12502 0 0
rthumb 6.06043 -769.855 0
749
root 4.04937 16.4981 14.8552 -163.346 -3.9937 188.809
lfemur -35.1679 5.04574 -17.2503
ltibia 49.8598 0 0
lfoot -30.939 7.60438 0
ltoes 6.13914 0 0
rfemur -27.5968 -32.7434 14.2015
rtibia 102.815 0 0
rfoot 14.6341 1.79456 0
rtoes 17.893 0 0
lowerback 3.09886 6.34481 -2.76929
upperback -1.03686 8.32132 -1.75865
thorax -2.91837 4.18909 -0.743325
lowerneck -6.24846 -8.69678 -1.60142
upperneck -2.22464 -11.7003 6.09829
head 0.835496 -5.8732 1.83
lclavicle -1.87948e-14 1.14618e-14 0
lhumerus -52.7203 -5.75621 79.3505
lradius 49.6138 0 0
lwrist 14.8336 0 0
lhand -29.0985 -4.67788 0
lfingers 7.12502 0 0
lthumb -2.44672 25.2832 0
rclavicle -1.87948e-14 1.14618e-14 0
rhumerus 18.7054 43.7886 -73.9882
rradius 95.3316 0 0
rwrist 1.08937 0 0
rhand -18.8028 -18.8476 0
rfingers 7.12502 0 0
rthumb 7.49437 -768.658 0
750
root 4.00576 16.3671 15.0503 -163.326 -1.78565 188.684
lfemur -36.7235 6.96546 -18.3165
ltibia 52.277 0 0
lfoot -31.7825 8.1839 0
ltoes 6.40309 0 0
rfemur -27.5838 -32.8716 15.8852
rtibia 101.023 0 0
rfoot 14.3225 0.836067 0
rtoes 18.3159 0 0
lowerback 3.3916 6.15122 -3.09936
upperback -0.876937 8.04415 -1.93709
thorax -2.93489 4.05606 -0.756304
lowerneck -6.11474 -8.78237 -1.76557
upperneck -2.30288 -11.8151 6.4691
head 0.828836 -5.93434 1.97526
lclavicle -1.52439e-14 1.29357e-14 0
lhumerus -51.6862 -5.81847 81.545
lradius 50.1303 0 0
lwrist 14.2439 0 0
lhand -29.6223 -4.92109 0
lfingers 7.12502 0 0
lthumb -2.95264 25.0354 0
rclavicle -1.52439e-14 1.29357e-14 0
rhumerus 15.4478 46.2574 -77.1541
rradius 95.0215 0 0
rwrist 2.19675 0 0
rhand -17.3649 -17.7291 0
rfingers 7.12502 0 0
rthumb 8.88255 -767.5 0
751
root 3.96502 16.2447 15.2325 -163.307 0.27681 188.568
lfemur -38.1764 8.7586 -19.3123
ltibia 54.5349 0 0
lfoot -32.5703 8.72522 0
ltoes 6.64964 0 0
rfemur -27.5716 -32.9914 17.4578
rtibia 99.3486 0 0
rfoot 14.0315 -0.059226 0
rtoes 18.711 0 0
lowerback 3.66504 5.97039 -3.40768
upperback -0.727559 7.78526 -2.10377
thorax -2.95031 3.9318 -0.768427
lowerneck -5.98984 -8.86231 -1.9189
upperneck -2.37597 -11.9224 6.81546
head 0.822615 -5.99144 2.11094
lclavicle -1.19271e-14 1.43125e-14 0
lhumerus -50.7203 -5.87663 83.5947
lradius 50.6128 0 0
lwrist 13.6931 0 0
lhand -30.1116 -5.14826 0
lfingers 7.12502 0 0
lthumb -3.42519 24.804 0
rclavicle -1.19271e-14 1.43125e-14 0
rhumerus 12.405 48.5634 -80.1113
rradius 94.7319 0 0
rwrist 3.23112 0 0
rhand -16.0217 -16.6844 0
rfingers 7.12502 0 0
rthumb 10.1792 -766.418 0
752
root 3.89273 16.1878 15.3808 -163.375 3.15634 188.573
lfemur -38.9288 10.4575 -20.1447
ltibia 55.4894 0 0
lfoot -32.7315 9.30838 0
ltoes 7.51038 0 0
rfemur -27.0003 -32.8774 18.2157
rtibia 97.435 0 0
rfoot 14.0729 -1.1964 0
rtoes 19.8616 0 0
lowerback 3.70757 5.88895 -3.53082
upperback -0.680201 7.67914 -2.35425
thorax -2.90616 3.88453 -0.950822
lowerneck -5.87222 -8.8984 -1.93748
upperneck -2.25646 -11.9231 6.76436
head 0.838516 -5.96274 2.10079
lclavicle -1.48058e-14 1.05577e-14 0
lhumerus -50.6074 -6.67762 84.654
lradius 52.2924 0 0
lwrist 13.4852 0 0
lhand -30.0317 -5.62787 0
lfingers 7.12502 0 0
lthumb -3.34807 24.3255 0
rclavicle -1.48058e-14 1.05577e-14 0
rhumerus 8.59952 49.4014 -83.1781
rradius 93.4981 0 0
rwrist 3.67833 0 0
rhand -16.2428 -16.8381 0
rfingers 7.12502 0 0
rthumb 9.96586 -766.581 0
753
root 3.81534 16.1269 15.5397 -163.447 6.23913 188.579
lfemur -39.7343 12.2764 -21.0358
ltibia 56.5112 0 0
lfoot -32.904 9.9327 0
ltoes 8.43189 0 0
rfemur -26.3886 -32.7554 19.027
rtibia 95.3864 0 0
rfoot 14.1173 -2.41384 0
rtoes 21.0935 0 0
lowerback 3.7531 5.80177 -3.66266
upperback -0.6295 7.56553 -2.62242
thorax -2.85889 3.83392 -1.14609
lowerneck -5.7463 -8.93704 -1.95737
upperneck -2.1285 -11.9238 6.70964
head 0.855539 -5.93201 2.08991
lclavicle -1.78877e-14 6.53781e-15 0
lhumerus -50.4865 -7.53516 85.788
lradius 54.0907 0 0
lwrist 13.2626 0 0
lhand -29.9462 -6.14133 0
lfingers 7.12502 0 0
lthumb -3.2655 23.8133 0
rclavicle -1.78877e-14 6.53781e-15 0
rhumerus 4.52541 50.2985 -86.4613
rradius 92.1772 0 0
rwrist 4.15711 0 0
rhand -16.4795 -17.0026 0
rfingers 7.12502 0 0
rthumb 9.73745 -766.756 0
754
root 3.73539 16.0641 15.7037 -163.523 9.42356 188.585
lfemur -40.5664 14.1553 -21.9563
ltibia 57.5667 0 0
lfoot -33.0822 10.5776 0
ltoes 9.38377 0 0
rfemur -25.7568 -32.6294 19.8651
rtibia 93.2702 0 0
rfoot 14.1631 -3.67142 0
rtoes 22.366 0 0
lowerback 3.80014 5.71171 -3.79884
upperback -0.577128 7.44817 -2.89943
thorax -2.81006 3.78165 -1.3478
lowerneck -5.61623 -8.97696 -1.97791
upperneck -1.99634 -11.9246 6.65313
head 0.873123 -5.90027 2.07868
lclavicle -2.10712e-14 2.38542e-15 0
lhumerus -50.3616 -8.42096 86.9594
lradius 55.9481 0 0
lwrist 13.0327 0 0
lhand -29.8579 -6.67173 0
lfingers 7.12502 0 0
lthumb -3.18021 23.2842 0
rclavicle -2.10712e-14 2.38542e-15 0
rhumerus 0.317 51.2252 -89.8529
rradius 90.8127 0 0
rwrist 4.65168 0 0
rhand -16.724 -17.1725 0
rfingers 7.12502 0 0
rthumb 9.50152 -766.937 0
755
root 3.65544 16.0012 15.8677 -163.598 12.608 188.591
lfemur -41.3985 16.0341 -22.8767
ltibia 58.6223 0 0
lfoot -33.2604 11.2225 0
ltoes 10.3357 0 0
rfemur -25.125 -32.5034 20.7032
rtibia 91.154 0 0
rfoot 14.2089 -4.929 0
rtoes 23.6384 0 0
lowerback 3.84717 5.62165 -3.93502
upperback -0.524756 7.33082 -3.17643
thorax -2.76123 3.72938 -1.54951
lowerneck -5.48616 -9.01688 -1.99846
upperneck -1.86417 -11.9254 6.59662
head 0.890707 -5.86852 2.06746
lclavicle -2.42547e-14 -1.76697e-15 0
lhumerus -50.2367 -9.30677 88.1308
lradius 57.8056 0 0
lwrist 12.8027 0 0
lhand -29.7696 -7.20212 0
lfingers 7.12502 0 0
lthumb -3.09492 22.7551 0
rclavicle -2.42547e-14 -1.76697e-15 0
rhumerus -3.89141 52.1519 -93.2444
rradius 89.4482 0 0
rwrist 5.14624 0 0
rhand -16.9686 -17.3424 0
rfingers 7.12502 0 0
rthumb 9.26559 -767.118 0
